<svg width="11" height="18" viewBox="0 0 11 18" fill="none" xmlns="http://www.w3.org/2000/svg">
<path fill-rule="evenodd" clip-rule="evenodd" d="M0.567233 0C0.880511 0 1.13447 0.257731 1.13447 0.575664V9.35139C1.13447 9.8625 1.13492 10.2109 1.15678 10.4805C1.17807 10.7432 1.21681 10.8797 1.26561 10.9763C1.38106 11.2046 1.56567 11.391 1.79363 11.5081C1.89076 11.5579 2.02769 11.5972 2.28925 11.6187C2.55732 11.6408 2.90363 11.6412 3.41059 11.6412H8.26157L4.79541 8.14799C4.5731 7.92395 4.57184 7.55947 4.79258 7.33386C5.01332 7.10825 5.37246 7.107 5.59477 7.33104L10.0375 11.8084C10.1447 11.9165 10.205 12.0636 10.205 12.217C10.205 12.3703 10.1447 12.5173 10.0375 12.6254L5.59477 17.1028C5.37246 17.3268 5.01332 17.3256 4.79258 17.1C4.57184 16.8744 4.5731 16.5099 4.79541 16.2858L8.26157 12.7926H3.38712C2.90941 12.7926 2.51689 12.7926 2.19751 12.7663C1.8664 12.7391 1.56445 12.6807 1.28143 12.5354C0.840649 12.309 0.481543 11.9475 0.256248 11.5018C0.111352 11.2152 0.0532467 10.9095 0.026125 10.5749C-1.55108e-05 10.2525 -7.5779e-06 9.85654 2.72101e-07 9.37541V0.575664C2.72101e-07 0.257731 0.253963 0 0.567233 0Z" fill="white"/>
</svg>
